<svg xmlns="http://www.w3.org/2000/svg" width="371" height="203" fill="none"><path fill="#535353" d="M146.548 159.05h-9.728v-38.495h9.728zM224.974 131.592c-.401-.203-3.531-2.056-8.184-2.056-6.289 0-10.651 4.37-10.651 10.268 0 5.72 4.175 10.277 10.651 10.277 4.573 0 7.755-1.815 8.184-2.043v10.332c-1.22.338-4.545 1.369-8.865 1.369-10.941 0-20.545-7.532-20.545-19.938 0-11.492 8.689-19.923 20.545-19.923 4.56 0 7.943 1.108 8.865 1.382zm-101.534 0c-.391-.203-3.518-2.056-8.171-2.056-6.301 0-10.661 4.37-10.661 10.268 0 5.72 4.178 10.277 10.661 10.277 4.572 0 7.752-1.815 8.171-2.043v10.332c-1.208.338-4.529 1.369-8.873 1.369-10.932 0-20.524-7.532-20.524-19.938 0-11.492 8.689-19.923 20.527-19.923 4.578 0 7.955 1.108 8.87 1.382zm132.133-1.911c-5.771 0-10.057 4.535-10.057 10.123 0 5.6 4.286 10.132 10.057 10.132 5.764 0 10.063-4.532 10.063-10.132 0-5.588-4.299-10.123-10.063-10.123m20.369 10.123c0 11.012-8.513 19.935-20.366 19.935-11.86 0-20.361-8.923-20.361-19.938 0-10.991 8.504-19.923 20.358-19.923 11.856 0 20.369 8.932 20.369 19.926m-92.515-10.492c-.144-.046-4.239-1.176-7.604-1.176-3.898 0-6.017 1.305-6.017 3.154 0 2.345 2.859 3.163 4.458 3.668l2.684.852c6.316 2.006 9.191 6.323 9.191 11.012 0 9.671-8.517 12.92-15.961 12.92-5.173 0-10.02-.954-10.497-1.052v-8.862c.856.216 4.936 1.434 9.185 1.434 4.84 0 7.065-1.415 7.065-3.593 0-1.951-1.926-3.077-4.338-3.834-.586-.197-1.473-.474-2.077-.671-5.417-1.711-9.934-4.892-9.934-11.261 0-7.2 5.398-12.034 14.365-12.034 4.735 0 9.191 1.147 9.48 1.224v8.219"/><path fill="#272727" d="M83.726 79.191c0-2.652-2.17-4.803-4.828-4.803-2.66 0-4.832 2.151-4.832 4.8v10.108a4.82 4.82 0 0 0 1.457 3.332 4.835 4.835 0 0 0 8.203-3.332zm26.526-13.261c0-1.28-.509-2.506-1.415-3.41a4.833 4.833 0 0 0-6.83 0 4.82 4.82 0 0 0-1.415 3.41v23.366a4.831 4.831 0 0 0 9.66 0v-23.37zm26.528-18.148c0-2.652-2.169-4.806-4.828-4.806-2.662 0-4.831 2.154-4.831 4.806V98.9a4.832 4.832 0 0 0 9.659 0zm26.526 18.148a4.831 4.831 0 0 0-9.659 0v23.366c0 1.28.508 2.506 1.414 3.41a4.833 4.833 0 0 0 6.83 0 4.82 4.82 0 0 0 1.415-3.41v-23.37zm26.498 13.261a4.808 4.808 0 0 0-4.801-4.803 4.83 4.83 0 0 0-3.407 1.404 4.82 4.82 0 0 0-1.421 3.396v10.108c0 1.275.507 2.498 1.41 3.4a4.82 4.82 0 0 0 6.809 0 4.8 4.8 0 0 0 1.41-3.4zm26.538-13.261a4.81 4.81 0 0 0-4.814-4.688 4.817 4.817 0 0 0-4.815 4.688v23.366a4.81 4.81 0 0 0 4.815 4.808 4.82 4.82 0 0 0 3.404-1.409 4.8 4.8 0 0 0 1.41-3.4V65.928zm26.544-18.148a4.8 4.8 0 0 0-1.41-3.4 4.817 4.817 0 0 0-8.219 3.4V98.9a4.82 4.82 0 0 0 1.333 3.538 4.83 4.83 0 0 0 5.374 1.098 4.82 4.82 0 0 0 2.618-2.731 4.8 4.8 0 0 0 .304-1.905zm26.538 18.148c0-2.655-2.154-4.812-4.874-4.812a4.82 4.82 0 0 0-3.404 1.41 4.8 4.8 0 0 0-1.409 3.399v23.369a4.813 4.813 0 0 0 4.813 4.818c2.72 0 4.874-2.15 4.874-4.818v-23.37zm26.489 13.261a4.82 4.82 0 0 0-9.638 0v10.105a4.819 4.819 0 1 0 9.635 0V79.19z"/><path fill="#535353" d="M290.345 153.987v.603h-1.72v4.465h-.708v-4.462h-1.726v-.606zm.36 0h1.106l1.519 4.157h.025l1.47-4.154h1.084v5.065h-.724v-4.154h-.024l-1.541 4.154h-.669l-1.503-4.154h-.034v4.154h-.709z"/></svg>