<svg xmlns="http://www.w3.org/2000/svg" width="268" height="147" fill="none"><path fill="#535353" d="M56.908 39.563h1.816c6.303.137 12.504 2.679 16.957 7.179-1.644 1.683-3.323 3.297-4.933 4.98-2.5-2.267-5.516-4.019-8.804-4.637-4.865-1.03-10.106-.103-14.183 2.68-4.453 2.92-7.468 7.866-8.119 13.155-.72 5.222.754 10.718 4.145 14.771 3.255 3.95 8.222 6.424 13.36 6.595 4.797.275 9.798-1.202 13.293-4.568 2.74-2.37 4.008-5.977 4.419-9.48-5.687 0-11.374.033-17.06 0V63.16h23.946c1.233 7.591-.549 16.144-6.304 21.572-3.837 3.847-9.147 6.114-14.56 6.56-5.24.516-10.653-.48-15.312-3.022-5.584-2.989-10.038-8.038-12.23-13.98-2.056-5.462-2.09-11.645-.172-17.141 1.747-5.015 5.105-9.446 9.421-12.538 4.145-3.057 9.181-4.74 14.32-5.05M194.285 41.344h7.331v49.052c-2.432 0-4.899.034-7.331-.035.034-16.316 0-32.667 0-49.017M98.052 58.352c4.522-.86 9.421.103 13.155 2.816 3.391 2.405 5.755 6.183 6.475 10.305.925 4.775-.24 9.996-3.323 13.775-3.323 4.225-8.77 6.492-14.08 6.148-4.865-.275-9.593-2.713-12.47-6.698-3.255-4.397-4.043-10.442-2.261-15.595 1.781-5.53 6.817-9.755 12.504-10.751m1.028 6.526a9.2 9.2 0 0 0-4.796 3.057c-3.323 3.985-3.118 10.477.548 14.187 2.09 2.13 5.241 3.126 8.153 2.542 2.706-.481 5.07-2.302 6.372-4.706 2.261-4.088 1.61-9.721-1.85-12.916-2.227-2.06-5.481-2.92-8.427-2.164M134.361 58.354c5.173-.996 10.826.447 14.697 4.088 6.303 5.667 6.989 16.282 1.61 22.808-3.254 4.122-8.53 6.39-13.737 6.149-4.968-.138-9.866-2.61-12.813-6.698-3.323-4.5-4.042-10.683-2.158-15.939 1.884-5.358 6.817-9.446 12.401-10.408m1.028 6.527a9.36 9.36 0 0 0-4.796 3.022c-3.289 3.916-3.152 10.305.377 14.05 2.09 2.232 5.344 3.331 8.359 2.713 2.672-.515 5.07-2.301 6.372-4.706 2.226-4.122 1.576-9.755-1.919-12.95-2.226-2.06-5.481-2.885-8.393-2.13M165.166 60.348c3.94-2.474 9.181-3.16 13.429-1.031 1.336.584 2.433 1.58 3.495 2.576.034-.927 0-1.889.034-2.85 2.295.034 4.59 0 6.92.034v30.296c-.034 4.569-1.199 9.412-4.488 12.744-3.597 3.676-9.112 4.809-14.08 4.053-5.31-.79-9.934-4.671-11.99-9.583 2.056-.996 4.214-1.786 6.338-2.714 1.199 2.817 3.631 5.221 6.68 5.77 3.049.551 6.577-.205 8.564-2.747 2.124-2.61 2.124-6.183 2.022-9.378-1.576 1.546-3.392 2.92-5.584 3.435-4.762 1.34-10.004-.309-13.669-3.538-3.7-3.229-5.893-8.21-5.687-13.156.103-5.599 3.254-10.992 8.016-13.912m7.092 4.396c-2.09.344-4.043 1.512-5.379 3.126-3.22 3.847-3.22 9.996.034 13.774 1.85 2.233 4.831 3.47 7.708 3.16 2.707-.274 5.208-1.992 6.544-4.362 2.261-4.019 1.884-9.48-1.165-12.984-1.884-2.164-4.899-3.229-7.742-2.714M210.413 62.09c4.111-3.848 10.449-5.153 15.724-3.126 5.002 1.889 8.188 6.664 9.798 11.576-7.434 3.091-14.834 6.148-22.268 9.24 1.028 1.958 2.604 3.744 4.728 4.465 2.98 1.065 6.543.687 9.044-1.305.993-.756 1.781-1.752 2.535-2.714 1.884 1.271 3.768 2.508 5.653 3.779-2.673 4.019-7.16 6.836-11.991 7.282-5.344.653-11.031-1.408-14.491-5.599-5.686-6.595-5.138-17.656 1.268-23.598m3.665 6.354c-1.164 1.683-1.644 3.744-1.61 5.771 4.968-2.06 9.935-4.122 14.902-6.217-.822-1.924-2.809-3.092-4.83-3.4-3.254-.585-6.646 1.167-8.462 3.846"/></svg>