<svg xmlns="http://www.w3.org/2000/svg" width="370" height="203" fill="none"><path fill="#535353" d="M78.758 137.523h41.22v5.917h-41.22zM78.758 126.172h41.22v5.937h-41.22zM90.52 114.828h17.68v5.938H90.52zM90.52 103.508h17.68v5.938H90.52zM90.52 92.203h17.68v5.938H90.52zM90.52 80.852h17.68v5.937H90.52zM119.978 69.516h-41.22v5.937h41.22zM119.978 58.188h-41.22v5.937h41.22zM125.863 132.11h63.396a21.2 21.2 0 0 0 2.352-5.938h-65.748zM184.329 103.508h-46.681v5.938h51.616c-1.345-2.275-3.004-4.275-4.935-5.938M137.648 92.203v5.938h46.681a22.1 22.1 0 0 0 4.935-5.938zM189.259 69.516h-63.396v5.937h65.748a25.7 25.7 0 0 0-2.352-5.937M169.772 58.188h-43.909v5.937h59.049a22.26 22.26 0 0 0-15.14-5.937M155.308 80.852h-17.66v5.937h17.66zM172.969 86.79h18.479c.525-1.896.798-3.896.798-5.938h-19.277zM137.648 114.828h17.66v5.938h-17.66zM172.969 114.828v5.938h19.277c0-2.043-.273-4.043-.798-5.938zM125.863 143.398l43.909.063c5.88 0 11.192-2.274 15.161-5.938h-59.07zM196.539 137.523h29.44v5.917h-29.44zM196.539 126.172h29.44v5.937h-29.44zM208.301 114.828h17.681v5.938h-17.681zM208.301 103.508h17.681v5.938h-17.681zM234.169 69.516h-37.63v5.937h39.667zM230.263 58.188h-33.724v5.937H232.3zM261.297 137.523h29.461v5.917h-29.461zM261.297 126.172h29.461v5.937h-29.461zM261.297 114.828h17.681v5.938h-17.681zM261.297 103.508h17.681v5.938h-17.681zM261.302 98.14h17.681v-5.937h-33.682l-1.659 4.801-1.659-4.8h-33.682v5.937h17.681v-5.454l1.869 5.454h31.582l1.869-5.454zM278.981 80.852h-29.776l-2.037 5.937h31.813zM257.025 58.188l-2.037 5.937h35.761v-5.937zM243.639 143.398l2.036-5.875h-4.073zM239.731 132.109h7.812l2.1-5.937h-11.991zM235.77 120.766h15.749l2.079-5.938h-19.907zM231.81 109.446h23.666l2.016-5.938h-27.719zM208.301 86.79h31.813l-2.037-5.938h-29.776zM251.094 75.453h39.667v-5.937H253.11z"/></svg>