<svg xmlns="http://www.w3.org/2000/svg" width="370" height="203" fill="none"><path fill="#535353" d="M46.885 125.141 36.598 111.92v15.295h23.255v-14.772l-9.44 12.698zM14.309 74.336v52.879h13.565V96.631h7.65l13.208 17.23 12.144-17.23h6.262V74.336zM102.407 116.699l-7.673-13.728-7.604 13.728zm-10.05-17.941h4.957l17.043 28.815h-5.907l-3.735-6.728H84.821l-3.666 6.728h-5.432zM128.001 109.699v17.874h-5.024V98.758h4.141l21.117 18.825c1.358 1.155 2.444 2.446 3.464 3.941a29 29 0 0 1-.475-5.369V98.758h5.024v28.815h-3.735l-21.524-19.097c-1.29-1.155-2.445-2.379-3.395-3.942a33 33 0 0 1 .407 5.165M177.233 103.039v20.184h10.525c8.69 0 12.969-2.378 12.969-10.194 0-7.543-4.345-9.99-12.969-9.99zM199.912 101c3.869 2.447 6.247 6.932 6.247 12.097 0 9.786-5.907 14.476-17.789 14.476h-16.569V98.758h16.569c5.091 0 8.962.611 11.542 2.242M218.914 98.828h5.432v28.747h-5.432zM259.524 116.699l-7.672-13.728-7.605 13.728zm-10.049-17.941h4.957l17.042 28.815h-5.907l-3.734-6.728h-19.895l-3.666 6.728h-5.432zM285.114 109.699v17.874h-5.024V98.758h4.142l21.116 18.825c1.358 1.155 2.445 2.446 3.465 3.941a29 29 0 0 1-.476-5.369V98.758h5.025v28.815h-3.736l-21.524-19.097c-1.29-1.155-2.444-2.379-3.395-3.942.272 1.699.407 3.466.407 5.165M340.531 127.573h-5.432v-24.534H321.52v-4.281h32.659v4.281h-13.648z"/></svg>