<svg xmlns="http://www.w3.org/2000/svg" width="370" height="203" fill="none"><g fill="#535353" clip-path="url(#a)"><path d="M144.047 71.96h11.674l19.849 35.875 19.849-35.874h11.421v58.949h-9.524V85.73l-17.405 31.285h-8.935L153.571 85.73v45.18h-9.524zM237.556 131.96q-6.617 0-11.631-2.927-5.016-2.926-7.818-8.105-2.803-5.18-2.802-11.874 0-6.778 2.739-12 2.74-5.22 7.607-8.17 4.868-2.945 11.189-2.947 6.279 0 10.81 2.969 4.53 2.97 6.974 8.316 2.444 5.348 2.445 12.548v2.61h-32.324q.885 5.391 4.362 8.484 3.477 3.095 8.786 3.095 4.257 0 7.333-1.263t5.774-3.831l5.057 6.189q-7.543 6.906-18.501 6.906m6.954-34.97q-2.993-3.052-7.839-3.052-4.72 0-7.901 3.116-3.183 3.116-4.025 8.379h23.179q-.422-5.39-3.414-8.443M268.618 94.784h-8.766v-7.79h8.766V74.109h9.187v12.885h13.317v7.79h-13.317v19.747q0 4.926 1.685 7.032t5.774 2.105q1.812 0 3.077-.147t2.781-.401v7.706c-1.154.333-2.33.587-3.519.758-1.36.2-2.734.298-4.109.295q-14.877 0-14.876-16.253zM339 130.907h-9.019v-6.148q-2.401 3.453-6.111 5.327-3.708 1.872-8.428 1.874-5.816 0-10.304-2.969-4.49-2.969-7.059-8.168-2.571-5.2-2.571-11.895 0-6.738 2.613-11.917t7.227-8.126q4.616-2.947 10.599-2.948 4.51 0 8.092 1.748a16 16 0 0 1 5.942 4.947V86.99H339zm-9.187-28.548q-1.476-3.747-4.657-5.916-3.183-2.169-7.354-2.168-5.901 0-9.398 3.957-3.499 3.958-3.498 10.696 0 6.779 3.371 10.737t9.146 3.958q4.255 0 7.585-2.19t4.805-5.895zM41.091 110.888c0 3.564.783 6.3 1.807 7.956 1.341 2.168 3.343 3.087 5.383 3.087 2.632 0 5.04-.653 9.679-7.064 3.716-5.138 8.096-12.351 11.043-16.873l4.99-7.66c3.467-5.32 7.48-11.235 12.08-15.244C89.829 71.818 93.88 70 97.958 70c6.845 0 13.366 3.963 18.356 11.397 5.462 8.141 8.113 18.396 8.113 28.978 0 6.291-1.241 10.913-3.353 14.565-2.041 3.532-6.017 7.06-12.707 7.06v-10.069c5.728 0 7.158-5.259 7.158-11.277 0-8.576-2.002-18.094-6.411-24.894-3.128-4.824-7.183-7.771-11.644-7.771-4.824 0-8.707 3.635-13.07 10.118-2.32 3.444-4.702 7.64-7.376 12.377l-2.943 5.21c-5.913 10.475-7.41 12.861-10.367 16.798C58.532 129.387 54.106 132 48.28 132c-6.91 0-11.28-2.99-13.987-7.495-2.209-3.671-3.294-8.489-3.294-13.978z"/><path d="M38.953 82.108C43.58 74.983 50.256 70 57.914 70c4.435 0 8.844 1.311 13.447 5.067 5.036 4.106 10.403 10.868 17.1 22.012l2.4 3.999c5.797 9.647 9.094 14.61 11.024 16.951 2.482 3.006 4.221 3.902 6.479 3.902 5.727 0 7.157-5.259 7.157-11.277l8.902-.279c0 6.291-1.241 10.913-3.353 14.565-2.04 3.532-6.017 7.06-12.706 7.06-4.159 0-7.843-.902-11.918-4.742-3.132-2.948-6.793-8.184-9.61-12.891l-8.379-13.984c-4.204-7.018-8.06-12.25-10.293-14.62-2.4-2.548-5.487-5.626-10.413-5.626-3.986 0-7.371 2.795-10.204 7.07z"/><path d="M57.755 80.138c-3.986 0-7.372 2.794-10.205 7.07-4.006 6.04-6.459 15.039-6.459 23.68 0 3.564.783 6.3 1.807 7.956l-8.604 5.661C32.085 120.834 31 116.016 31 110.527c0-9.981 2.742-20.385 7.957-28.42C43.583 74.984 50.26 70 57.917 70z"/></g><defs><clipPath id="a"><path fill="#fff" d="M31 70h308v62H31z"/></clipPath></defs></svg>