<svg xmlns="http://www.w3.org/2000/svg" width="370" height="203" fill="none"><path fill="#535353" d="M323.824 98.454v-4.89h-6.07v-7.6l-.204.063-5.701 1.745-.112.034v5.76h-8.998v-3.21c0-1.493.334-2.636.992-3.399.653-.753 1.588-1.136 2.78-1.136.858 0 1.745.202 2.638.6l.224.1v-5.149l-.105-.039c-.834-.3-1.967-.45-3.371-.45-1.771 0-3.379.385-4.782 1.149a8.17 8.17 0 0 0-3.281 3.245c-.771 1.387-1.162 2.988-1.162 4.76v3.528h-4.226v4.89h4.226v20.597h6.067V98.454h8.998v13.09c0 5.391 2.542 8.123 7.555 8.123.823 0 1.69-.097 2.576-.286.901-.194 1.515-.388 1.876-.595l.08-.048v-4.934l-.247.163c-.329.22-.739.399-1.22.532-.483.136-.886.204-1.198.204-1.175 0-2.044-.316-2.583-.941-.545-.63-.822-1.733-.822-3.275V98.454zm-44.927 16.25c-2.202 0-3.938-.73-5.162-2.169-1.231-1.446-1.854-3.508-1.854-6.127 0-2.703.623-4.818 1.855-6.29 1.224-1.462 2.944-2.204 5.112-2.204 2.103 0 3.778.709 4.977 2.108 1.206 1.406 1.818 3.504 1.818 6.238 0 2.768-.575 4.894-1.71 6.316-1.127 1.411-2.821 2.128-5.036 2.128m.27-21.753c-4.201 0-7.538 1.231-9.918 3.66-2.377 2.43-3.583 5.791-3.583 9.992 0 3.991 1.177 7.2 3.498 9.539s5.48 3.524 9.388 3.524c4.073 0 7.343-1.249 9.721-3.711 2.378-2.46 3.583-5.79 3.583-9.893 0-4.053-1.13-7.286-3.361-9.61s-5.371-3.501-9.328-3.501m-23.283 0c-2.857 0-5.221.731-7.027 2.173-1.817 1.45-2.739 3.353-2.739 5.654 0 1.197.199 2.26.591 3.161a6.34 6.34 0 0 0 1.813 2.369c.804.663 2.044 1.358 3.688 2.064 1.381.569 2.412 1.05 3.067 1.429.639.372 1.094.746 1.35 1.109.249.357.376.844.376 1.445 0 1.713-1.282 2.546-3.92 2.546-.978 0-2.094-.205-3.317-.608a12.4 12.4 0 0 1-3.396-1.722l-.252-.181v5.843l.092.043c.859.397 1.941.731 3.217.994 1.273.263 2.43.397 3.435.397 3.101 0 5.598-.735 7.42-2.185 1.834-1.46 2.764-3.407 2.764-5.789 0-1.718-.501-3.191-1.487-4.379-.979-1.179-2.679-2.261-5.05-3.217-1.889-.759-3.099-1.388-3.598-1.871-.481-.467-.726-1.128-.726-1.964 0-.74.302-1.335.921-1.815.624-.484 1.493-.73 2.582-.73 1.011 0 2.045.16 3.074.473 1.027.313 1.93.733 2.684 1.245l.248.17v-5.543l-.096-.041c-.695-.298-1.612-.553-2.725-.76-1.109-.206-2.114-.31-2.989-.31m-25.582 21.753c-2.201 0-3.938-.73-5.161-2.169-1.232-1.446-1.854-3.507-1.854-6.127 0-2.703.623-4.818 1.855-6.29 1.223-1.462 2.943-2.204 5.112-2.204 2.102 0 3.777.709 4.977 2.108 1.206 1.406 1.817 3.504 1.817 6.238 0 2.768-.575 4.894-1.71 6.316-1.127 1.411-2.82 2.128-5.036 2.128m.271-21.753c-4.203 0-7.54 1.231-9.918 3.66s-3.584 5.791-3.584 9.992c0 3.992 1.178 7.2 3.499 9.539s5.48 3.524 9.388 3.524c4.072 0 7.343-1.249 9.721-3.711 2.378-2.46 3.583-5.79 3.583-9.893 0-4.053-1.131-7.286-3.362-9.61-2.232-2.323-5.371-3.501-9.327-3.501m-22.711 5.028v-4.414h-5.993v25.487h5.993v-13.038c0-2.217.502-4.038 1.494-5.414.979-1.359 2.283-2.048 3.876-2.048.54 0 1.146.09 1.802.266.649.175 1.12.365 1.397.565l.252.183V93.52l-.097-.041c-.558-.237-1.348-.357-2.347-.357a6.14 6.14 0 0 0-4.008 1.437c-1.013.838-1.745 1.986-2.305 3.419zm-16.726-5.028c-2.749 0-5.201.59-7.287 1.752a11.8 11.8 0 0 0-4.807 4.945c-1.095 2.11-1.651 4.575-1.651 7.324 0 2.408.539 4.618 1.605 6.566 1.066 1.951 2.574 3.477 4.484 4.536 1.907 1.057 4.112 1.593 6.552 1.593 2.848 0 5.28-.57 7.23-1.693l.078-.045v-5.493l-.252.184a11.3 11.3 0 0 1-2.932 1.527c-1.059.37-2.025.557-2.871.557-2.352 0-4.24-.736-5.61-2.187-1.373-1.453-2.07-3.494-2.07-6.061 0-2.584.727-4.677 2.158-6.221 1.426-1.54 3.318-2.32 5.621-2.32 1.969 0 3.889.666 5.705 1.984l.251.183v-5.787l-.081-.046c-.683-.383-1.615-.699-2.772-.938-1.153-.24-2.28-.36-3.351-.36m-17.872.614h-5.993v25.487h5.993zm-2.936-10.857c-.986 0-1.846.336-2.553 1.001-.71.668-1.07 1.508-1.07 2.5 0 .976.356 1.801 1.059 2.451.698.648 1.561.977 2.565.977 1.003 0 1.869-.329 2.576-.976.711-.65 1.072-1.475 1.072-2.452 0-.957-.351-1.789-1.043-2.473-.691-.682-1.568-1.028-2.606-1.028m-14.953 8.977v27.367h6.117V83.488h-8.466l-10.759 26.416-10.442-26.416h-8.809v35.563h5.747V91.682h.198l11.026 27.37h4.337l10.854-27.367z"/><path fill="#272727" d="M74.103 99.813H45.91V71.608h28.193zM105.235 99.813H77.043V71.608h28.192zM74.102 130.969H45.91v-28.203h28.192zM105.235 130.969H77.043v-28.203h28.192z"/></svg>