<svg xmlns="http://www.w3.org/2000/svg" width="370" height="203" fill="none"><path fill="#535353" fill-rule="evenodd" d="M71.223 133.864 83.03 68.031h12.37l15.464 44.452 15.462-44.452h12.37l11.808 65.833h-11.808l-7.872-43.889-15.182 43.889h-9.559l-15.18-43.889-7.873 43.889zm93.339 0V68.031h-12.089v65.833zm3.655-65.833v11.535h15.181v54.298h12.089V79.566h15.182V68.03zm94.462 0v65.833h34.862v-11.535h-22.772v-16.881h22.772V94.477h-22.772V79.566h22.772V68.03z" clip-rule="evenodd"/><path fill="#535353" fill-rule="evenodd" d="M240.613 68.123c10.431 0 18.886 8.46 18.886 18.899 0 10.014-7.784 16.914-17.628 17.456l20.81 28.262V68.031h34.862v11.535H274.77v14.91h22.773v10.972H274.77v16.881h22.773v11.535h-48.919l-19.118-26.727V94.581h11.107a7.562 7.562 0 0 0 0-15.12h-14.479v54.403h-12.091V68.031z" clip-rule="evenodd"/></svg>