<svg xmlns="http://www.w3.org/2000/svg" width="371" height="203" fill="none"><path fill="#878787" d="M271.76 91.997h-62.799V75.945h62.799z"/><path fill="#A0A0A0" d="M263.603 91.99h-54.642V51.844h54.642z"/><path fill="#CBCBCB" d="M241.028 91.994h-32.067v-56.19h32.067z"/><path fill="#7C7C7C" d="M247.336 91.998h-38.375v-49.92h38.375z"/><path fill="#919191" d="M208.953 42.086V91.99h32.072V42.086z"/><path fill="#181818" d="M176.805 91.992h32.155v8.027h-32.155z"/><path fill="#8F8F8F" d="M208.953 51.836v40.15h38.403v-40.15z"/><path fill="#636363" d="M208.953 51.836v40.15h32.072v-40.15z"/><path fill="#525050" d="M229.014 91.995h-20.053V67.898h20.053z"/><path fill="#707070" d="M208.953 75.96v16.036h54.669V75.96z"/><path fill="#444" d="M208.953 75.96v16.036h38.403V75.96z"/><path fill="#32302F" d="M208.953 75.96v16.036h32.072V75.96z"/><path fill="#181818" d="M208.953 75.96v16.036h20.082V75.96z"/><path fill="#272727" d="M215.957 122.221c-5.471.971-8.389 5.099-8.389 12.263 0 7.285 3.891 12.141 9.605 12.141 2.797 0 5.228-.971 10.335-3.521v5.95c-6.201 2.914-9.848 3.642-14.712 3.642-5.471 0-9.362-1.335-12.401-4.614-3.162-3.157-4.864-7.285-4.864-12.02 0-10.32 7.782-17.484 19.089-17.484 7.417 0 12.645 3.521 12.645 8.499 0 3.279-2.432 5.585-5.958 5.585-1.824 0-3.283-.607-5.35-1.699M188.598 136.062c4.985-6.192 6.809-8.742 6.809-11.777 0-3.036-2.432-5.707-5.836-5.707-1.945 0-3.769 1.093-4.62 2.064v12.749l-8.146 10.927v-24.769h-7.782l-12.887 21.248v-21.248h-4.378l-11.793 2.672v3.035l6.444.607v26.347h8.146l12.402-20.397v20.397h9.118M115.284 148.074h1.824c6.565 0 10.213-4.007 10.213-12.02 0-6.678-2.918-10.321-8.39-10.321-.729 0-1.823.122-3.647.486zm0 14.327 5.35 1.214v3.036H99.6v-3.036l4.863-1.214v-36.668h-5.35v-3.035l12.767-3.886h3.404v4.371c5.958-3.642 8.025-4.249 11.186-4.249 7.052 0 12.401 6.556 12.401 15.663 0 10.441-7.173 17.605-18.116 17.605-1.216 0-3.283-.121-5.471-.243"/></svg>