<svg xmlns="http://www.w3.org/2000/svg" width="370" height="203" fill="none"><path fill="#535353" d="m168.998 108.992-11.06 8.034 13.468 9.786 4.223-13.001zM173.398 128.264l11.061 8.033 11.054-8.033-11.054-8.037zM178.979 103.414l-40.549-29.46 9.465 19.695 13.448 9.765zM183.227 90.44l-56.653-41.159 9.465 19.7 43.815 31.831zM134.609 33.117l-6.679 13.898 20.527 14.911zM193.285 113.811l4.227 13.001 13.463-9.786-11.061-8.034zM207.553 103.414l13.448-9.765 9.462-19.696-40.545 29.461zM185.68 90.44l3.368 10.372 43.816-31.831 9.467-19.7zM234.308 33.117l-13.851 28.81 20.53-14.912zM178.312 110.918a6.147 6.147 0 0 1 12.293 0 6.147 6.147 0 0 1-12.293 0M97.164 156.281h4.447v7.075c0 .777.07 1.341.352 1.817.565.97 1.694 1.235 2.594 1.235 1.165 0 1.835-.405 2.135-.688.758-.705.777-1.835.777-2.435v-7.003h4.446v6.527c0 1.464-.035 2.999-.723 4.058-1.359 2.117-4.64 2.311-6.617 2.311-2.77 0-4.34-.388-5.275-.951-1.941-.954-2.135-2.93-2.135-3.935v-8.011M113.105 165.469h4.059v3.246h-4.059zM123.962 159.483a.7.7 0 0 0 .141.441c.3.388 1.552.67 2.241.811.847.194 1.711.353 2.558.547.547.106 1.076.23 1.606.441 1.658.618 2.188 1.853 2.188 2.982 0 .829-.283 1.587-.653 2.134-1.042 1.57-3.141 2.259-6.494 2.259-1.252 0-3.74-.106-5.204-1.412-1.077-.953-1.236-2.099-1.306-2.664l4.393-.124c.159.812.988 1.43 2.753 1.43.459 0 1.111-.054 1.552-.3.3-.177.618-.53.618-.953 0-.582-.476-.829-.829-.953-.547-.176-3.353-.67-3.971-.811-.493-.107-.952-.23-1.428-.389-.476-.176-2.471-.882-2.471-3.158 0-.935.389-1.8 1.006-2.434 1.394-1.447 3.9-1.588 5.275-1.588 1.518 0 3.018.212 3.794.476 2.329.741 2.629 2.488 2.753 3.158l-4.375.248c-.107-.407-.318-1.148-2.189-1.148-.582 0-1.958.089-1.958 1.007M134.148 165.469h4.059v3.246h-4.059zM154.394 163.956h-2.893l1.429-4.217zm-9.386 4.781h4.887l.671-2.03h4.764l.67 2.03h4.853l-5.4-12.456h-5.081zM166.98 156.281v12.456h-4.464v-12.456zM174.757 159.105h3.706c.335 0 .793.034 1.146.353.23.212.318.511.318.794 0 1.111-1.129 1.129-1.818 1.129h-3.352zm-4.464 9.632h4.464v-4.534h2.382l2.558 4.534h4.941l-3.123-4.975c.529-.141 1.376-.318 2.082-1.164.512-.617.794-1.483.794-2.365 0-1.253-.565-2.469-1.465-3.158-1.04-.759-2.382-.777-3.475-.794h-9.158zM191.293 156.281h12.21v2.805h-7.746v2.382h7.111v2.787h-7.111v4.482h-4.464zM213.501 158.576c3.052.035 3.652 2.541 3.652 3.899 0 1.252-.476 2.876-1.852 3.564-.547.283-1.183.353-1.8.353-2.699 0-3.741-1.993-3.741-3.916 0-1.712.935-3.935 3.741-3.9m-.265-2.77c-2.206.035-5.17.441-6.916 2.912-.795 1.128-1.148 2.505-1.148 3.899 0 1.429.335 2.628 1.182 3.757.918 1.253 2.7 2.787 7.041 2.787 2.257 0 4.269-.316 5.963-1.658a5.9 5.9 0 0 0 1.483-1.676c.617-1.023.9-2.223.9-3.387 0-2.134-1.006-4.746-3.866-5.91-1.428-.583-3.087-.741-4.639-.724M228.699 159.105h3.706c.335 0 .794.034 1.146.353.23.212.318.511.318.794 0 1.111-1.129 1.129-1.817 1.129h-3.353zm-4.465 9.632h4.465v-4.534h2.382l2.558 4.534h4.941l-3.124-4.975c.53-.141 1.377-.318 2.083-1.164.512-.617.794-1.483.794-2.365 0-1.253-.565-2.469-1.465-3.158-1.041-.759-2.381-.777-3.475-.794h-9.159zM245.073 162.499c0 1.888 1.111 3.847 3.67 3.847.97 0 1.87-.301 2.523-.83.582-.477.759-.881.9-1.253l4.252.441c-.141.459-.3.918-.706 1.552-1.464 2.259-4.323 2.895-7.058 2.895-1.217 0-2.418-.107-3.564-.459-2.559-.795-4.676-2.753-4.676-6.175 0-2.417 1.27-6.775 8.363-6.775 6.051 0 7.005 2.752 7.411 3.934l-4.129.741c-.176-.353-.388-.829-1.041-1.252-.671-.424-1.5-.566-2.135-.566-2.01 0-3.81 1.253-3.81 3.9M271.495 156.281v2.805h-8.664v2.029h8.011v2.823h-8.029v1.976h8.857v2.823h-13.303v-12.456z"/></svg>