<svg xmlns="http://www.w3.org/2000/svg" width="269" height="148" fill="none"><path fill="#272727" d="m137.981 25.523-.174 1.04.335.056.085-.506 1.055.179-.576 3.411-.591-.1-.042.257 1.964.333.045-.256-.586-.1.576-3.411 1.048.176-.087.507.335.057.177-1.038-.336-.058-.029.172-2.891-.49.03-.171zm-4.517.085v.261h.469l-.007 3.566-.47-.003v.261l1.734.005v-.26h-.465l.005-1.561h.169l.924 1.456c.211.328.271.365.636.368l.785.002-.005-.266h-.254c-.124 0-.198-.057-.34-.273l-.874-1.352c.581-.178.866-.537.869-1.093 0-.328-.097-.594-.301-.8-.221-.224-.518-.306-1.05-.306zm-2.941.239-.372.064-.897 4.17-.377.065.045.256 1.261-.22-.044-.255-.487.084.224-1.055 1.479-.259.549.922-.427.075.045.256 1.487-.259-.042-.256-.256.045zm4.207.111h.39c.44.003.693.286.691.783 0 .49-.293.828-.718.828l-.365-.003zm7.828.542-.094.244.484.189-1.289 3.325-.484-.19-.095.244 1.334.517.094-.241-.484-.189.946-2.44.328 3.28 2.351-2.3-.966 2.491-.484-.188-.094.24 1.713.667.095-.244-.484-.189 1.288-3.322.482.184.095-.241-1.143-.443-2.245 2.217-.328-3.213zm-15.307.318a1.6 1.6 0 0 0-.521.085l-1.779.591.083.246.446-.146 1.123 3.384-.447.147.082.249 1.703-.564-.087-.252-.499.167-1.095-3.303.353-.116c.424-.14.737.076.918.628.174.522.048.885-.352 1.017a.6.6 0 0 1-.164.034l.094.289c.162-.023.229-.038.328-.07.688-.226 1.076-.942.865-1.583-.166-.507-.559-.793-1.051-.803m3.059.107.845 1.424-1.198.209zm-6.891 1.04-.295.153.077.154-2.265 1.168.119.231.417-.216 1.632 3.171-.417.214.119.23 2.617-1.349-.382-.733-.296.152.211.407-1.191.616-.701-1.358.879-.453.199.385.295-.159-.559-1.084-.295.16.194.372-.88.455-.667-1.3 1.145-.588.203.397.29-.151zm25.124 1.127-.139.219.397.253-1.917 3.005-.398-.254-.139.219 2.484 1.585.437-.69-.281-.18-.246.386-1.13-.723.822-1.288.835.532-.234.366.286.174.656-1.03-.286-.173-.229.355-.832-.534.785-1.233 1.085.693-.24.376.278.176.528-.83-.283-.179-.091.147zM119.66 30.76a2.12 2.12 0 0 0-1.145.417l-1.555 1.143.154.209.38-.278 2.106 2.867q.148.059.298.115l1.031-.758c.489-.36.744-.753.836-1.285a2.1 2.1 0 0 0-.372-1.603 2 2 0 0 0-1.733-.827m-.28.577c.471.037.973.311 1.31.77.576.78.539 1.721-.092 2.184l-.405.298-2.011-2.739.424-.31a1.14 1.14 0 0 1 .774-.203m32.686.086-.174.191.329.301-.068.368-2.187 2.4-.38-.345-.177.191 1.033.942.174-.194-.36-.33 1.82-1.998-.389 3.173c.377-.097.779-.206 1.216-.328l.105-.03 1.557-1.71.385.351.176-.191-1.028-.942-.176.194.359.33-1.745 1.916.439-3.459zm-35.853 2.845c-.279.823.318 1.917 1.03 2.063-.63.065-1.17.393-1.42.75.474.552 1.425 1.126 2.21 1.141-.363.244-.802.758-.951 1.046.678.36 1.758.664 2.59.607-.35.28-.653.636-.849.961.564.256 1.656.629 2.699.708-.385.19-.931.845-1.214 1.248.586.263 1.855.42 2.642.5-.564.298-1.153.89-1.478 1.423.571.274 1.644.58 2.521.552-.432.415-.718.92-.882 1.407.663.136 1.364.139 2.171.03-.492.62-.688 1.443-.758 2.032.658-.02 1.532-.169 2.148-.54-.134.505-.104 1.184.112 1.666a3.4 3.4 0 0 0 .884-.343c-.042-.937-.084-1.894-.112-2.681a5.5 5.5 0 0 1-1.243-.867c-1.331-1.216-1.647-2.493-1.255-3.959.234-.872.591-1.312.47-2.224-.07-.522-.44-.942-.808-1.295-.891-.857-1.946-1.387-3.506-1.911-.963-.323-3.765-1.195-5.001-2.314m18.833.448a18.27 18.27 0 0 0-9.658 2.746c.728.566 1.16 1.163 1.264 1.784.092.544.157 1.2-.158 2.16-.333 1.016-.517 2.06.233 3.12.745 1.056 1.716 1.511 2.518 1.665a37 37 0 0 1 3.377-.427c.152-.492.601-.92 1.048-1.267.654-.507.509-.952.353-1.297-.119-.269-.353-.49-.688-.664-.293-.152-1.368-.263-1.341.425-.174-.249-.318-.586-.214-1.016.144-.6 1.125-.753 1.369-.736-.189-.159-.072-.417.357-.537.522-.144 1.016-.166 1.493-.154.983.025 1.137.266 1.636.709.601.534 1.396.72 1.709.397-.223.512-.939.785-1.398.706.223.708.302 1.325.382 2.068.037.338.107.906.199 1.371 1.318.11 2.64.291 3.792.512.479-.139.973-.42 1.418-.934.422-.487.809-1.106.65-2.661-.044-.438-.263-1.559-.233-2.088.072-1.195.958-1.976 2.352-2.61a18.26 18.26 0 0 0-10.46-3.272m21.232.454-.834.64.206.27.407-.31.648.85-2.746 2.1-.142-.187a3 3 0 0 1-.238.117l1.018 1.334.206-.157-.36-.472 2.747-2.1.645.845-.407.313.209.271.834-.638-.209-.274-.136.105-1.778-2.331.136-.105zm-1.974.607c-1.237 1.12-3.213 1.419-5.29 2.107-1.564.517-2.535.818-3.933 1.936-.4.318-.78.785-.737 1.59.047.895.193 1.28.215 2.53.018.89-.29 1.608-.662 2.03a5 5 0 0 1-1.369 1.079c-.027.76-.062 1.523-.104 2.41.325.177.742.343 1 .4.216-.48.246-1.16.112-1.665.616.37 1.49.52 2.148.54-.069-.59-.265-1.412-.757-2.033.807.11 1.507.105 2.17-.03a3.5 3.5 0 0 0-.881-1.406c.876.027 1.952-.276 2.523-.552-.325-.534-.914-1.126-1.478-1.424.787-.08 2.091-.231 2.677-.495-.283-.402-.866-1.063-1.249-1.255 1.043-.077 2.136-.45 2.7-.708a3.9 3.9 0 0 0-.85-.961c.976-.065 1.912-.246 2.59-.607-.149-.288-.591-.805-.951-1.046 2.088-.581 2.123-1.627 2.126-2.44m-42.873 2.977-.164.29.161.092a1.6 1.6 0 0 0-.444.517c-.37.659-.221 1.318.373 1.65.238.132.491.184.725.137.241-.047.333-.082.963-.422.606-.32.865-.38 1.108-.244.281.16.345.512.156.848-.149.263-.323.407-.653.541l-.397-.223-.167.298.971.546.167-.298-.194-.107c.286-.164.477-.355.653-.668.356-.631.174-1.322-.44-1.667a1.16 1.16 0 0 0-.64-.162c-.199.01-.38.057-.537.132-.076.035-.263.137-.563.293-.621.33-.825.38-1.041.259-.253-.142-.33-.47-.173-.751.111-.201.248-.316.521-.46l.373.209.163-.291zm4.016.522a.4.4 0 0 0-.405.405c0 .226.179.405.405.405a.405.405 0 0 0 0-.81m43.075 1.636a2.2 2.2 0 0 0-.822.188c-1.082.474-1.582 1.68-1.125 2.724.457 1.04 1.684 1.498 2.767 1.023 1.083-.474 1.572-1.682 1.115-2.726a2.03 2.03 0 0 0-1.935-1.209m-24.254.273c-.428-.006-.592.13-.954.081.182.137.288.154.35.142.005.032.065.077.08.09.04.034.06.067.072.104.082-.035.3-.125.502-.197.203-.072.481-.154.481-.154a2.8 2.8 0 0 0-.531-.066m24.752.515c.518.009.959.209 1.114.563.248.574-.288 1.411-1.142 1.784-.862.378-1.843.206-2.093-.365-.246-.567.29-1.404 1.152-1.782.32-.14.658-.205.969-.2m-49.733 1.512-.409 1.377.255.076.147-.491 2.205.658c.725.216 1.021.758.81 1.469a1.14 1.14 0 0 1-.258.46c-.251.255-.557.28-1.155.101l-2.21-.658.134-.445-.249-.074-.496 1.66.248.074.134-.45 2.396.714c.82.243 1.533-.224 1.818-1.184.092-.308.112-.618.073-.914-.087-.576-.438-.934-1.108-1.133l-2.23-.666.149-.497zm3.79.466a.413.413 0 0 0-.159.796.413.413 0 1 0 .32-.762.4.4 0 0 0-.161-.034m48.294 1.353-.251.065.116.452-3.454.877-.114-.455-.253.065.414 1.633.246-.065-.102-.4 1.585-.403.243.96-.42.106.09.323 1.179-.3-.087-.323-.406.104-.244-.96 1.415-.36.316 1.248-.432.11.082.317.953-.24-.082-.326-.166.045zm-26.329 1.074c-2.17 0-4.934.31-7.02.785.05 1.366.132 3.098.226 4.818 1.967-.417 4.564-.725 6.794-.725s4.83.308 6.795.725c.094-1.72.176-3.452.226-4.818-2.084-.475-4.85-.785-7.021-.785m.008.541.099.365.373-.02-.313.207.134.355-.293-.238-.291.238.134-.355-.313-.206.373.02zm-1.771.055.12.36.372-.042-.301.226.157.346-.306-.221-.275.255.112-.36-.328-.19.375-.002zm3.544.002.074.37.375.006-.325.186.111.363-.275-.258-.306.223.154-.348-.3-.226.373.042zm-5.307.15.139.352.368-.06-.288.242.173.335-.317-.203-.264.27.095-.367-.336-.172.375-.022zm7.065 0 .057.375.373.022-.335.172.097.368-.266-.271-.316.206.174-.338-.29-.241.369.062zm-8.816.233.152.346.368-.078-.279.254.187.33-.326-.194-.248.284.077-.37-.343-.157.373-.04zm10.572.003.04.375.372.04-.343.156.078.37-.251-.283-.326.192.189-.329-.278-.253.365.077zm10.238.462c1.066.624 1.433 1.3 1.59 2.075-.852.19-1.989-.09-2.61-.577.611.534.993 1.372 1.02 2.237-.879.044-1.688-.368-2.284-.965.382.425.866 1.506.752 2.272-.732-.077-1.596-.557-2.063-1.131.387.86.573 1.553.528 2.324-.73-.137-1.281-.343-1.934-.965.316.783.43 1.571.36 2.22-.842-.298-1.4-.631-1.875-1.427.251.699.418 1.618.241 2.152-.712-.213-1.182-.641-1.552-1.37.365.774.32 1.67.196 2.138-.298-.06-.688-.266-.896-.494l-.028.407a5.1 5.1 0 0 1-.308 1.461l.204.239c.375.403.887.785 1.292.914-.174.025-.415.176-.656.201.268.304.812.371 1.149.716-.263.03-.325.221-.64.187.606.467 1.16.485 1.47.522.124.015.532.052.79.012.365-.057.742.127.891.211.224.132.211.44.169.596a.42.42 0 0 1-.236.294c-.096.027-.156.035-.062-.037.089-.065.169-.458-.035-.61a.96.96 0 0 0-.603-.188c-.273.012-.693.037-.894.017-.186-.02-.301.226-.328.328-.067.244-.141.547-.494.395-.432-.248-1.051-.228-1.758-.512.102.22.057.406.166.65-.631-.155-.79-.476-1.391-.687.1.221.073.39.209.597-.506-.09-.978-.544-1.684-.733q-.032.01-.064.02-.383.117-.703.216c.499.566.911 1.26 1.102 2.1 0 0-.35.01-.871-.172.149.457.241.95.248 1.476 0 0-.395-.072-.936-.407.047.497.03 1.014-.072 1.545 0 0-.457-.186-.996-.738a5.6 5.6 0 0 1-.412 1.55s-.415-.282-.842-.943a6 6 0 0 1-.762 1.503s-.455-.477-.763-1.441c-.412.616-.801.882-.801.882a5.7 5.7 0 0 1-.413-1.551c-.539.55-.995.738-.995.738a5.4 5.4 0 0 1-.075-1.548c-.542.336-.936.408-.936.408a5 5 0 0 1 .25-1.477c-.521.182-.871.172-.871.172.196-.858.757-1.737 1.132-2.132q-.275-.087-.596-.184c-.022-.008-.042-.012-.065-.02-.705.189-1.176.644-1.683.733.134-.209.107-.377.206-.596-.601.211-.76.532-1.388.686.107-.244.064-.43.166-.65-.584.287-1.385.486-1.741.56-.389.082-.414-.502-.543-.63-.058-.058-.37-.083-.502-.06-.194.032-.573.017-.857.01a.96.96 0 0 0-.626.19c-.206.152-.109.56-.019.627.096.072.037.064-.06.037a.42.42 0 0 1-.236-.293c-.042-.157-.057-.465.169-.597.146-.084.524-.268.889-.211.259.04.665.002.79-.012.124-.013 1.038-.181 1.641-.649-.315.035-.38-.154-.643-.186.338-.343.881-.41 1.15-.716-.241-.027-.452-.218-.626-.246.531-.298.887-.47 1.262-.872l.201-.231a5 5 0 0 1-.311-1.466q-.011-.191-.027-.393c-.132.144-.4.29-.837.447-.204-.494-.104-1.421.154-2.134-.37.728-.79 1.203-1.503 1.416-.173-.534-.071-1.468.18-2.167-.475.793-.981 1.196-1.823 1.491-.07-.648-.003-1.5.308-2.286-.651.624-1.205.828-1.933.964-.047-.77.142-1.464.529-2.324-.466.575-1.437.967-2.17 1.044.055-.665.521-1.578.795-2.114-.691.497-1.426.85-2.22.894a4.3 4.3 0 0 1 1.02-2.236c-.683.507-1.731.783-2.518.676.191-.83.701-1.64 1.391-2.072-.4.076-1.125.243-1.957.166a18.3 18.3 0 0 0-.767 5.186c-.417-.328-.705-.41-.991-.694.055.39.104.602.149 1.087.077.867.404 1.364.948 1.677q.04.37.095.738c-.403-.259-.944-.42-1.659-.41.434 1.414 1.056 1.518 1.887 1.652q.041.196.09.386c-.443-.114-.974-.117-1.58.05.417.648.999 1.043 1.925 1.182q.002.008.005.015c-.571-.047-1.187.037-1.679.288.703.607 1.393.835 2.051.768q.048.13.105.259c-.522.139-.979.41-1.237.66.549.175 1.11.267 1.619.212l.017.037c-.298.229-.558.596-.717 1.175.39-.099.789-.126 1.189-.24q.12.22.249.44c-.212.4-.283.904-.159 1.463.335-.077.613-.209.842-.378q.118.175.241.346c-.085.641.064 1.287.447 1.714.153-.174.275-.34.382-.502.827-1.265.328-2.174.345-2.994.008-.018.012-.032.02-.052.067.976.916 1.94-.08 3.119l-.054.064c3.367 3.911 8.349 6.39 13.913 6.39 7.9 0 14.632-4.993 17.222-11.996l.835-.363-.063.363 1.203-1.041-1.557.32.33.172-.643.263c.049-.14.091-.284.137-.426l-.734.642.063-.365-4.614 2.31-.023-.039a.3.3 0 0 0-.076-.084l.178-.142 4.443-2.226-.328-.17 1.197-.256c.023-.075.05-.15.072-.226l.914-.504-.03.368 1.103-1.146-1.52.462.343.142-.731.403c.041-.15.072-.303.109-.454l-.801.883.02-.37-2.953 1.931c-.358.179-.708.356-1.013.51.199-.157.417-.328.638-.51l3.213-2.102-.345-.13 1.294-.434c.032-.138.07-.273.099-.413l.696-.442-.03.368 1.08-1.143-1.517.467.342.139-.531.338q.089-.465.154-.937l.835-.698.019.37.939-1.282-1.445.663.358.095-.666.556q.07-.574.104-1.16l.822-.91.07.363.757-1.396-1.343.85.367.044-.655.703q.014-.361.014-.728c0-1.831-.268-3.6-.767-5.27-.832.077-1.664-.19-2.064-.266m2.362 9.689-.053.221.267-.293zm-.313 1.177q-.052.165-.106.33l.464-.406zM134.236 47.96l.109.362.372-.032-.308.219.147.347-.298-.228-.283.248.122-.357-.321-.197.375.005zm1.706.002.084.367.375-.007-.32.197.121.36-.283-.249-.301.229.147-.35-.305-.22.372.033zm-3.395.092.126.358.373-.05-.298.23.164.344-.31-.214-.271.261.104-.363-.33-.181.375-.013zm5.083.007.067.373.376.012-.331.182.104.365-.27-.266-.311.217.162-.344-.296-.233.373.052zm-6.767.17.142.35.37-.065-.286.243.177.336-.318-.201-.259.273.087-.367-.337-.167.375-.028zm8.453.01.05.377.372.027-.337.167.087.367-.258-.275-.321.201.182-.336-.289-.243.37.067zm-10.131.242.156.346.365-.08-.275.257.188.327-.325-.188-.248.283.074-.37-.345-.154.375-.043zm11.818.016.03.377.372.048-.345.149.069.372-.243-.288-.33.186.194-.328-.271-.258.362.085zm-5.896.971.099.365.373-.02-.315.21.136.355-.293-.241-.29.24.134-.355-.313-.208.372.02zm-1.701.048.117.36.372-.04-.303.224.154.348-.302-.224-.279.256.115-.363-.326-.187.375-.002zm3.41.007.074.373.375.004-.327.187.113.363-.278-.259-.305.221.156-.345-.3-.226.373.042zm-5.103.13.134.354.37-.057-.291.239.169.338-.313-.21-.266.27.097-.366-.335-.174.375-.02zm6.794.014.059.375.373.02-.336.174.097.365-.263-.268-.318.206.174-.337-.29-.24.37.058zm-8.486.201.152.346.365-.072-.281.25.187.331-.324-.194-.252.279.081-.37-.342-.157.372-.037zm10.177.02.04.375.375.04-.343.157.08.37-.254-.28-.323.19.187-.33-.279-.251.366.075zm-21.95 2.12c.365 1.103.114 2.246-.606 2.907a2.2 2.2 0 0 0-.181-.946c.129-.562.392-1.275.581-1.598-.288.25-.574.842-.708 1.349a2 2 0 0 0-.241-.34c.241-.691.778-1.218 1.155-1.372m34.975.194-.636 1.458-.1-.358-3.786 4.8c-.209.23-.415.459-.619.675l-.008-.005c.269-.405.554-.84.823-1.247l3.429-4.349-.37-.013zm-3.085.787-.322 1.558-.172-.327-3.338 6.759a.3.3 0 0 0-.097-.082c-.019-.01-.041-.025-.069-.037l3.32-6.73-.365.065zm-33.95.093c.921.633 1.119 1.264 1.328 2.075l.023-.008a.315.315 0 0 1 .374.248.32.32 0 0 1-.625.127.32.32 0 0 1 .191-.357 12.5 12.5 0 0 0-1.291-2.085m22.096.544c-.318 0-.591.164-.882.338-.31.186-.665.4-1.1.4-.444 0-.767-.135-1.028-.281v1.653q.09.051.174.104c.263.161.492.303.854.303.224 0 .447-.134.708-.291.35-.209.745-.445 1.274-.445.502 0 .834.204 1.127.383.264.164.489.303.855.303.345 0 .531-.151.764-.34.162-.13.346-.281.592-.37l.106-1.745a3 3 0 0 0-.216.164c-.28.226-.631.51-1.246.51-.579 0-.954-.229-1.255-.415-.245-.152-.442-.271-.727-.271m14.88.044-.743 1.407-.072-.363-5.185 5.673-.539.425.144-.293 5.429-5.944-.368-.04zm-33.715.55c.469 2.112-.571 2.284-1.125 3.071-.604-1.08-.057-2.555 1.125-3.071m31.224.042-.512 1.506-.129-.348-2.913 4.419-.032.037.69-1.4 2.086-3.165-.37.02zm-31.587.467c-.528.325-.899 1.908-.757 2.502.273-1.021.415-1.732.757-2.502m34.189.129-.851 1.345-.045-.368-3.154 2.922c-.323.259-.656.52-.974.77l.825-.909 3.164-2.935-.363-.07zm4.979.895-.276 1.414.254.05.099-.518 1.172 1.07-1.497.6.089-.45-.256-.049-.33 1.7.256.05.074-.383 2.057-.848 1.676.329-.09.457.256.05.333-1.703-.261-.045-.089.462-1.833-.36-1.465-1.34.085-.437zm-42.442.007c.914.097 1.463.649 1.843 1.163a.25.25 0 0 1 .04.497.254.254 0 0 1-.291-.206.25.25 0 0 1 .184-.283c-.522-.47-1.274-.932-1.776-1.17m-4.035.201-.254.063.112.457-3.462.847-.111-.457-.253.062.412 1.683.253-.063-.112-.45 1.58-.384.476 1.955-1.579.385-.109-.452-.253.062.412 1.682.25-.059-.111-.457 3.462-.847.111.457.254-.063-.41-1.685-.253.063.109.45-1.527.372-.477-1.953 1.527-.373.109.45.254-.062zm8.386 0c1.06 2.207-.149 2.58-.372 3.422-.149-.79.007-2.062.111-2.72-.335.447-.427 1.07-.387 1.674q.001.01.005.02a.3.3 0 0 1 .002.09c.025.268.075.534.144.772a2.4 2.4 0 0 1-.28-.559.294.294 0 1 1-.214-.536.4.4 0 0 1 .09-.003c-.082-.708.134-1.516.901-2.16m32.861.19-.956 1.27-.015-.37-5.334 4.211c.144.028.273.08.31.14.092.146.067.218-.017.469-.082.24-.141.325-.3.345-.045.005-.127.015-.222-.022.048.032.082.06.105.124.022.065.062.18-.134.403-.177.199-.341.27-.477.19-.077-.044-.102-.093-.139-.133.019.052.042.112.052.172.032.198-.119.273-.31.34-.363.129-.539.072-.624-.055-.181-.275-.079-.628.043-.688a.8.8 0 0 0-.008.353c.018.106.067.28.263.263.107-.01.301-.055.417-.13.085-.054.087-.195.045-.315-.02-.06-.045-.146-.117-.208.12.032.189.097.284.174.091.077.233.094.315.01a1.1 1.1 0 0 0 .201-.264c.092-.191-.154-.34-.296-.42.251.01.291.107.495.077.201-.03.261-.353.263-.46.003-.077-.092-.156-.209-.186a1 1 0 0 0-.268-.02.7.7 0 0 0 .01-.176q.015-.002.025-.003l.126-.1 5.374-4.248-.357-.098zm-31.224.345c-.062.611.017 1.15.005 1.675.345-.547.948-.915 1.457-1.064-.069 2.18-1.065 2.346-1.505 2.903.072-.671.418-1.566 1.021-2.332-.822.547-1.087 1.332-1.11 2.125a2 2 0 0 1-.124-.49 3 3 0 0 1-.392.57c-.159-.997.087-2.077.221-2.594-.432.435-.576 1.463-.403 2.288a.36.36 0 0 1-.126.656.362.362 0 1 1-.01-.71c-.432-.932-.077-2.267.966-3.027m-3.382.913a.35.35 0 1 1-.002.7.35.35 0 0 1 .002-.7m-1.826.325c.43.02.989.024 1.803.742a.26.26 0 0 1 .159-.097.25.25 0 0 1 .291.204.25.25 0 0 1-.207.291.25.25 0 0 1-.265-.363c-.591-.417-1.523-.685-1.781-.778m21.689 1.05c-.318 0-.591.164-.881.338-.313.184-.666.398-1.1.398-.445 0-.768-.134-1.028-.28v2.022c.231-.236.561-.447 1.03-.592l.576-.178c.482-.154 1.143-.36 2.183-.681.303-.092.581-.219.832-.373-.378-.072-.653-.239-.884-.383-.246-.151-.442-.27-.728-.27m-20.547.166c.458.001.782.118 1.197.352.055.017.065.02.018.014-.509-.176-1.011-.273-1.726-.328q.283-.038.511-.038m1.442.361a.363.363 0 1 1-.004.727.363.363 0 0 1 .004-.727m38.106.507-.119.319.162.061-1.034 2.746-.161-.062-.119.318.983.37.119-.32-.481-.182.377-1.001 3.236 1.22-.211.562.243.092.7-1.864-.238-.092-.208.557-3.236-1.22.375-.997.479.181.119-.317zm-37.465.2c.117.003.22.088.239.208a.255.255 0 0 1-.203.29.254.254 0 0 1-.291-.206.2.2 0 0 1 .005-.104h-.002c-.623.002-1.383.156-2.111.325.646-.36 1.418-.46 2.126-.365a.24.24 0 0 1 .186-.144.3.3 0 0 1 .051-.004m2.305.088a.38.38 0 0 1 .371.306.38.38 0 0 1-.299.445.38.38 0 0 1-.444-.296.378.378 0 0 1 .372-.455m-1.659.28c.153.002.289.11.321.265a.325.325 0 0 1-.255.382.33.33 0 0 1-.381-.236h-.014c-.524.072-1.399.405-1.947.728.534-.633 1.408-.773 1.932-.753l.022.003a.327.327 0 0 1 .322-.389m.887.267c.126 0 .237.088.263.216a.27.27 0 0 1-.213.32.27.27 0 0 1-.318-.212.273.273 0 0 1 .268-.324m1.593.034a.294.294 0 0 1 .302.237.3.3 0 0 1-.231.348.295.295 0 1 1-.071-.585m-.952.565a.379.379 0 1 1-.003.759.379.379 0 0 1 .003-.76m-10.285.05a2.2 2.2 0 0 0-.82.199c-1.075.489-1.557 1.702-1.085 2.738.471 1.037 1.706 1.474 2.781.984s1.547-1.705 1.075-2.741a2.03 2.03 0 0 0-1.951-1.18m8.934.039c.033-.005-.002.051-.134.19a9.3 9.3 0 0 0-1.217 1.689c.082-.532.435-1.168.952-1.595.204-.17.357-.278.399-.284m2.703.053a.7.7 0 0 1 .18.015.8.8 0 0 0 .015.176 1 1 0 0 0-.317.008c-.12.027-.217.101-.217.18 0 .108.052.434.254.468.201.035.245-.06.494-.062-.144.075-.393.216-.308.41.034.075.094.16.196.268.08.09.221.075.315 0 .095-.074.167-.139.288-.166-.074.06-.101.144-.124.204-.044.119-.047.26.035.315.114.08.308.13.412.142.196.022.249-.151.268-.256a.8.8 0 0 0 .003-.353c.122.062.213.418.022.688-.089.125-.268.177-.623.038-.186-.072-.338-.15-.295-.35a1 1 0 0 1 .057-.172c-.038.04-.065.087-.144.131-.14.077-.303-.002-.472-.203-.191-.231-.149-.34-.122-.405.025-.065.06-.09.109-.122-.094.035-.176.022-.221.017-.159-.022-.216-.109-.29-.352-.077-.251-.1-.328-.005-.47.056-.084.291-.144.49-.149m21.63.05c.036-.004.084.042.108.102.037.101.111.203.32.218a.42.42 0 0 1-.39.032c-.084-.042-.084-.109-.082-.26.001-.062.02-.089.044-.091m-20.025.13c.027 0 .049.024.05.09.003.152.003.22-.084.261a.42.42 0 0 1-.387-.032c.206-.015.283-.116.32-.218.021-.056.065-.1.101-.101m20.725.1c.109-.001.22.035.282.11-.023.179-.085.512-.437.569.049-.147.045-.447-.052-.624a.4.4 0 0 1 .207-.055m-21.434.13a.4.4 0 0 1 .223.054.93.93 0 0 0-.05.624c-.352-.057-.414-.392-.437-.569.057-.071.16-.107.264-.11m-2.99.072c-.41.634-.85 2.314-.827 2.796-.199-.5-.025-1.305.191-1.83.149-.362.521-.914.636-.966m-9.034.204c.518.002.962.195 1.122.546.258.57-.266 1.414-1.118 1.802-.856.39-1.837.231-2.096-.338-.255-.561.269-1.406 1.125-1.797.319-.145.656-.213.967-.213m33.079.012q.03.167.129.316c.055.077.129.126.184.171a.55.55 0 0 1-.343.11c-.115-.005-.119-.023-.112-.065.028-.19.1-.458.142-.532m-20.661.13c.044.074.117.34.139.531.007.042.002.06-.11.065a.56.56 0 0 1-.342-.11c.055-.047.131-.094.184-.17a.8.8 0 0 0 .129-.317m.747.076c1.495 1.126 2.342 2.69 2.56 3.947-.188-.137-.541-.281-.757-.24-.193-1.326-.886-2.4-1.974-3.272.045-.201.112-.34.171-.435m18.985.246a.03.03 0 0 1-.012.01l-.035.023c-.432.28-2.191 1.367-2.191 1.367l-.245-.048-.723.492-.775.482-.044-.24-.415-.153 1.838-.872.293.093zm.102.187-.549.599-1.932 1.361-.221-.007-1.249 1.078-.052-.328-.435-.09 1.55-.966.176-.109.301.062-.003-.005zm.188.107a.8.8 0 0 0 .023.27l-.924 1.089-.233.05-1.217 1.6-.065-.36-.363.017-.017.007.005-.005-.069.003 1.467-1.469.027-.027.311-.025zm.212.608q.073.07.173.102l-.787 1.635.104.296-.891 1.829-.166-.447-.455.139.941-1.804.291-.097-.005-.002zm10.939.386-.825 1.523.226.124.226-.413 3.131 1.698-.223.415.228.124.827-1.523-.228-.127-.221.407-3.134-1.697.221-.407zm-41.335.757-.209.154.306.42-2.884 2.095-.305-.42-.211.152.84 1.158.21-.154-.305-.42 2.116-1.538-1.5 2.932 3.223-.656-2.163 1.57-.305-.42-.211.152 1.08 1.489.208-.154-.305-.423 2.883-2.095.306.423.211-.154-.72-.992-3.087.646 1.465-2.88zm40.283 2.047a1 1 0 0 0-.212.009c-.313.047-.554.236-.871.663l-1.088 1.466.206.154.28-.377 2.861 2.124-.28.378.208.154 1.033-1.392-.208-.154-.276.373-1.252-.932.1-.134 1.721.122c.387.027.454-.003.673-.296l.469-.631-.211-.152-.151.204c-.075.1-.162.127-.422.112l-1.608-.1c.204-.573.085-1.016-.362-1.349a1.14 1.14 0 0 0-.61-.242m-.432.726c.177-.016.371.05.57.197.392.293.492.728.239 1.071l-.219.293-1.291-.959.231-.313c.131-.176.292-.273.47-.29m-2.045 1.837-1.06.967.179.196.379-.348 1.553 1.702c.506.557.484 1.176-.065 1.675-.136.127-.3.214-.459.261-.345.09-.619-.045-1.041-.507l-1.557-1.707.343-.313-.177-.191-1.279 1.168.175.19.347-.317 1.684 1.849c.576.63 1.428.601 2.168-.077a2.2 2.2 0 0 0 .534-.746c.221-.537.104-1.023-.368-1.54l-1.567-1.72.383-.35zm-34.305.07-.177.19.346.32-2.414 2.62-.345-.317-.177.191 2.166 1.995.551-.61-.246-.227-.31.338-.986-.91 1.036-1.122.727.67-.293.321.251.221.827-.897-.248-.221-.286.31-.727-.67.988-1.074.946.872-.301.328.241.221.668-.723-.245-.226-.117.13zm2.94 2.505-.147.216.39.263-1.989 2.96-.39-.264-.146.217 2.423 1.63.463-.686-.276-.186-.256.38-1.093-.736 1.93-2.87.385.258.144-.215zm27.58.564-.29.176.134.222a2.4 2.4 0 0 0-.996.36c-1.065.643-1.386 1.903-.755 2.947.638 1.054 1.89 1.324 3.005.646.404-.244.648-.472.998-.91l-.432-.705-.296.178.244.403c-.154.306-.308.48-.574.639-.73.445-1.698.119-2.22-.738-.531-.878-.393-1.802.343-2.249.28-.171.487-.217.916-.187l.206.341.291-.177zm-23.318 1.856-3.089 2.938-.348-.16-.106.236 1.164.532.107-.239-.45-.203.78-.746 1.368.624-.067 1.07-.395-.178-.107.236 1.374.626.107-.235-.236-.11.241-4.234zm19.683.16-.311.12.065.162-2.374.933.094.24.437-.174 1.301 3.32-.437.172.095.24 2.739-1.075-.296-.766-.31.122.169.428-1.252.49-.559-1.422.922-.363.159.403.308-.13-.445-1.135-.311.129.155.393-.922.362-.534-1.359 1.2-.47.161.415.306-.12zm-20.125.767-.107 1.652-1.102-.504zm2.501.149-.06.253.432.105.119.352-.757 3.16-.499-.12-.06.254 1.361.325.059-.254-.474-.114.628-2.631 1.389 3.451.422.102.899-3.787.506.121.063-.253-1.359-.326-.062.254.477.115-.603 2.521-1.284-3.24zm13.861.432-.325.072.04.182a1.6 1.6 0 0 0-.681.01c-.735.161-1.13.71-.983 1.377.059.265.189.49.38.63.196.15.283.192.956.438.641.239.859.392.919.666.069.316-.154.599-.529.68-.296.066-.517.03-.837-.126l-.097-.447-.333.072.239 1.088.332-.072-.049-.213c.313.101.581.12.931.042.71-.154 1.105-.748.953-1.437a1.2 1.2 0 0 0-.305-.586 1.4 1.4 0 0 0-.454-.313c-.077-.032-.276-.102-.594-.224-.66-.241-.834-.363-.886-.604-.065-.285.129-.561.444-.63.224-.05.398-.023.688.083l.092.418.325-.072zm-9.215.604-.01.261.469.018-.127 3.563-.469-.017-.01.26 1.917.07h.005c.606.023 1.051-.129 1.453-.487.435-.392.683-.917.703-1.486.045-1.145-.834-2.07-2.001-2.112zm1.254.393.524.02c.725.025 1.316.827 1.283 1.737-.034.972-.648 1.687-1.427 1.658l-.502-.018z"/><path fill="#272727" d="M135.047 31.133c-4.989 0-9.59 1.67-13.273 4.483q.261.093.526.196.316.123.614.246a20.77 20.77 0 0 1 12.133-3.892c5.053 0 9.69 1.8 13.3 4.792.408-.117.805-.221 1.21-.326a21.8 21.8 0 0 0-14.51-5.5M116.499 41.39a21.8 21.8 0 0 0-3.354 11.66c0 12.104 9.806 21.917 21.902 21.917s21.903-9.813 21.903-21.917c0-4.073-1.113-7.89-3.047-11.158q-.524.18-1.033.288a20.8 20.8 0 0 1 3.047 10.87c0 11.532-9.342 20.883-20.87 20.883-11.525 0-20.869-9.35-20.869-20.883a20.8 20.8 0 0 1 3.305-11.282 6.6 6.6 0 0 1-.983-.378z"/><path fill="#535353" d="M135.042 22C117.899 22 104 35.906 104 53.063s13.899 31.063 31.042 31.063 31.041-13.906 31.041-31.063S152.187 22 135.042 22m0 60.201c-16.082 0-29.119-13.046-29.119-29.138s13.038-29.136 29.119-29.136c16.079 0 29.115 13.046 29.115 29.136.003 16.093-13.035 29.138-29.115 29.138"/><path fill="#686868" d="M134.809 58.024h-5.883q.13.27.3.511a3.37 3.37 0 0 0 1.793 1.27c1.041.32 1.701.527 2.186.681l.576.18c.471.146.799.357 1.03.59v-3.233z"/><path fill="#535353" d="M134.809 51.43c-2.046.017-4.564.3-6.543.728.084 1.543.171 3.049.258 4.25.047.648.141.963.295 1.366l.293-.542.234-.223.219.23.394-.307.229-.303.405-.686.586-.31.432-.458.283-.453.534-.124.357-.395.602.54.536.233.236.619.365.181c.097.231.191.273.285.33zm.455 0v1.767l.174.104c.263.161.491.303.854.303.223 0 .447-.134.708-.29.35-.209.744-.448 1.273-.448.502 0 .835.206 1.128.385.263.162.489.3.854.3.348 0 .534-.15.767-.34.194-.156.423-.342.748-.414l.037-.64a35.3 35.3 0 0 0-6.543-.727m3.012 4.736c-.318 0-.591.164-.881.338-.311.187-.666.398-1.101.398a1.97 1.97 0 0 1-1.03-.276v1.722l.174.105c.263.164.491.303.854.303.223 0 .447-.135.708-.291.35-.209.745-.447 1.273-.447.502 0 .835.206 1.128.385.263.161.489.3.854.3.281 0 .457-.099.641-.238.378-.56.596-1.253.65-2.06l.008-.102c-.018.013-.032.025-.05.04-.28.226-.631.511-1.246.511-.579 0-.954-.228-1.254-.414-.246-.154-.442-.273-.728-.273"/><path fill="#000" d="M77.246 114.421q-3.412 0-5.245-1.15-1.796-1.186-2.479-3.523-.646-2.337-.646-5.788V92.78l-2.946-.54v-1.582h9.017v1.582l-2.946.54v11.18q0 3.2.503 4.961.54 1.761 1.904 2.445 1.365.683 3.916.683 2.3 0 3.52-.899 1.26-.899 1.725-2.66.504-1.799.503-4.53V92.851l-2.946-.575v-1.618h8.227v1.618l-2.91.575v11.109q0 2.587-.395 4.53-.395 1.94-1.4 3.271-.971 1.33-2.803 2.013-1.796.648-4.599.647M99.715 114.314q-1.509 0-2.91-.324-1.4-.287-2.443-.719-1.005-.468-1.544-.863v-5.177h1.868l.61 3.703q.755.576 1.976.971 1.258.36 2.335.359 2.767 0 3.988-1.042 1.222-1.079 1.222-2.984 0-1.367-.683-2.193t-1.832-1.438a21 21 0 0 0-2.515-1.151 36 36 0 0 1-2.443-1.042 14 14 0 0 1-2.263-1.33 5.9 5.9 0 0 1-1.617-1.834q-.61-1.115-.61-2.624 0-1.977.933-3.38.935-1.437 2.659-2.228 1.725-.791 4.06-.791 1.185 0 2.407.143 1.257.144 2.263.36t1.437.395v5.393h-1.76l-.719-3.487q-.538-.288-1.545-.54a9.2 9.2 0 0 0-2.227-.251q-2.335 0-3.52.899-1.15.899-1.15 2.624 0 1.51.79 2.409.825.862 2.12 1.438 1.293.54 2.694 1.114 1.653.648 3.09 1.438 1.437.756 2.335 1.978t.898 3.199q0 1.905-.683 3.272a5.96 5.96 0 0 1-1.832 2.157 8.6 8.6 0 0 1-2.551 1.186q-1.401.36-2.838.36M110.698 105.434v-2.157l7.724-.611v2.768zM132.737 114.35q-5.425 0-8.011-3.02-2.587-3.021-2.587-8.736 0-2.445.755-4.674a12.4 12.4 0 0 1 2.263-3.955 10.7 10.7 0 0 1 3.593-2.732q2.119-1.005 4.814-1.006 1.975 0 3.772.287 1.832.252 3.054.755v5.644h-1.797l-.754-3.954q-.862-.252-2.156-.396-1.257-.18-2.514-.18-2.48 0-4.132 1.151-1.653 1.115-2.479 3.38t-.826 5.716q0 2.48.503 4.314.502 1.833 1.437 3.055a5.7 5.7 0 0 0 2.299 1.762q1.401.576 3.198.575 1.437 0 2.407-.215 1.005-.252 1.58-.576.611-.323.899-.503l.718-3.703h1.76v5.465q-.682.287-1.688.683-1.006.359-2.479.611-1.472.252-3.629.252M144.495 113.954v-1.546l2.982-.611V92.815l-2.982-.611v-1.546h16.455v5.896h-1.761l-.754-3.919h-4.347l-3.521.216v8.233h5.676l.539-2.121h1.509v6.147h-1.509l-.539-2.121h-5.676v8.52q.683.18 1.796.288 1.114.108 2.156.108h4.203l.79-3.847h1.761v5.896zM165.055 113.954v-1.546l2.981-.611V92.815l-2.981-.611v-1.546h10.131q1.976 0 3.592.611 1.653.611 2.623 1.87 1.006 1.258 1.006 3.271 0 1.69-.431 2.876-.432 1.15-1.186 1.941a7.7 7.7 0 0 1-1.616 1.295q-.899.539-1.905.97l4.994 8.233 2.515.683v1.546h-3.305q-.826 0-1.258-.252-.395-.251-.79-.862l-4.994-8.7h-3.305v7.657l2.982.611v1.546zm6.071-11.792h2.263q1.689 0 2.946-.647a4.93 4.93 0 0 0 1.976-1.797q.719-1.15.719-2.66 0-1.474-.503-2.338-.467-.898-1.222-1.33a4.3 4.3 0 0 0-1.616-.539 10 10 0 0 0-1.653-.144q-.647 0-1.473.072a22 22 0 0 0-1.437.108zM190.286 113.954v-1.582l2.946-.539V92.671h-5.137l-.754 3.883h-1.761v-5.896h18.358v5.896h-1.76l-.719-3.883h-5.137v19.162l2.946.539v1.582zM41.528 124.315q0 .472-.215.834a1.4 1.4 0 0 1-.604.563q-.39.195-.903.195h-.09a2 2 0 0 1-.903-.195 1.44 1.44 0 0 1-.598-.556 1.6 1.6 0 0 1-.215-.841v-3.245h.68v3.231q0 .446.306.716.314.271.792.271.493 0 .778-.271.292-.27.292-.716v-3.231h.68zM46.305 121.07v4.768h-.577l-2.326-3.49-.021.007v3.483h-.618v-4.768h.597l2.306 3.447.02-.007v-3.44zM49.106 121.07v.618h-.555v3.531h.555v.619h-1.792v-.619h.556v-3.531h-.556v-.618zM53.317 121.07v.618h-1.493v4.15h-.68v-4.15H49.65v-.618zM57.256 121.07l-.09.618h-2.355v1.404h2.133v.619H54.81v1.508h2.397l.097.619H54.13v-4.768zM59.901 121.07q.597 0 1.042.264.444.257.688.743.243.48.243 1.133v.487q0 .653-.244 1.14a1.8 1.8 0 0 1-.687.743 2.04 2.04 0 0 1-1.042.258h-1.653v-4.768zm-.972.618v3.531h.972q.618 0 .952-.382.34-.39.34-1.14v-.487q0-.736-.334-1.126-.326-.396-.958-.396zM66.173 121q.785 0 1.229.348.451.347.451.986v.084h-.68v-.104a.58.58 0 0 0-.271-.515q-.271-.18-.716-.18-.492 0-.77.166a.51.51 0 0 0-.271.466q0 .23.153.375.16.147.388.23.237.083.646.187.528.139.855.272.326.132.555.396.237.264.236.702 0 .778-.479 1.14-.473.354-1.333.354-.862 0-1.34-.361-.474-.368-.473-1.064l.007-.139h.68l-.007.146q0 .403.3.605.305.194.84.194.52 0 .82-.187.305-.195.305-.528a.56.56 0 0 0-.167-.424 1.05 1.05 0 0 0-.41-.258 7 7 0 0 0-.666-.201 8 8 0 0 1-.834-.264 1.4 1.4 0 0 1-.535-.383q-.222-.264-.222-.688 0-.687.465-1.021t1.244-.334M72.187 121.07v.618h-1.493v4.15h-.68v-4.15H68.52v-.618zM75.001 121.07l1.862 4.768h-.737l-.403-1.036h-2.278l-.396 1.036h-.66l1.862-4.768zm-.389.82h-.041l-.883 2.293h1.8zM80.734 121.07v.618H79.24v4.15h-.68v-4.15h-1.494v-.618zM84.673 121.07l-.09.618h-2.355v1.404h2.132v.619h-2.132v1.508h2.396l.097.619h-3.174v-4.768zM87.206 121q.785 0 1.23.348.45.347.451.986v.084h-.68v-.104a.58.58 0 0 0-.271-.515q-.271-.18-.716-.18-.493 0-.77.166a.51.51 0 0 0-.272.466q0 .23.153.375.16.147.39.23.236.083.645.187.528.139.855.272.325.132.555.396.236.264.236.702 0 .778-.479 1.14-.473.354-1.334.354-.86 0-1.34-.361-.472-.368-.472-1.064l.007-.139h.68l-.007.146q0 .403.299.605.306.194.84.194.521 0 .82-.187.306-.195.306-.528a.56.56 0 0 0-.167-.424 1.05 1.05 0 0 0-.41-.258 7 7 0 0 0-.667-.201 8 8 0 0 1-.833-.264 1.4 1.4 0 0 1-.535-.383q-.222-.264-.222-.688 0-.687.465-1.021.466-.334 1.243-.334M93.465 121q.556 0 .972.229.417.23.64.661.228.423.229 1.007h-.68q0-.604-.3-.938-.299-.34-.86-.34-.627 0-.952.389-.327.382-.327 1.133v.625q0 .744.32 1.133.319.39.944.389.584 0 .89-.333.312-.334.312-.932h.653q0 .578-.23 1.001a1.55 1.55 0 0 1-.638.654 2 2 0 0 1-.973.229q-.924 0-1.445-.563-.513-.57-.513-1.578v-.625q0-1 .513-1.571.522-.57 1.445-.57M98.078 121q.59 0 1.035.257.444.258.687.744.25.48.25 1.14v.625q0 .66-.25 1.147-.243.48-.687.737a2.03 2.03 0 0 1-1.035.257q-.591 0-1.035-.257a1.8 1.8 0 0 1-.695-.737q-.243-.486-.243-1.147v-.625q0-.66.243-1.14.25-.486.695-.744a2.03 2.03 0 0 1 1.035-.257m0 .619q-.612 0-.952.389t-.34 1.133v.625q0 .744.326 1.133.334.39.966.389.61 0 .951-.382.34-.388.34-1.14v-.625q0-.744-.333-1.133-.326-.39-.958-.389M106.353 121.07v4.768h-.681v-3.969h-.041l-1.646 3.969h-.577l-1.639-3.969h-.035v3.969h-.618v-4.768h1.07l1.535 3.753h.027l1.542-3.753zM109.69 121.07q.403 0 .73.18.325.181.507.501.187.312.187.709 0 .395-.187.716-.182.313-.507.493-.327.18-.73.181h-1.375v1.988h-.681v-4.768zm-1.375.618v1.543h1.313a.8.8 0 0 0 .562-.222.73.73 0 0 0 .243-.549.71.71 0 0 0-.243-.549.8.8 0 0 0-.562-.223zM115.455 124.315q0 .472-.215.834a1.4 1.4 0 0 1-.604.563q-.39.195-.903.195h-.09q-.515 0-.903-.195a1.44 1.44 0 0 1-.598-.556 1.6 1.6 0 0 1-.215-.841v-3.245h.681v3.231q0 .446.305.716.314.271.792.271.493 0 .778-.271.292-.27.292-.716v-3.231h.68zM119.891 121.07v.618h-1.493v4.15h-.681v-4.15h-1.493v-.618zM123.831 121.07l-.091.618h-2.354v1.404h2.132v.619h-2.132v1.508h2.396l.097.619h-3.174v-4.768zM126.85 121.07q.633 0 1.035.298.41.3.41.821 0 .465-.25.792a.96.96 0 0 1-.604.396v.035q.333.132.548.459.216.326.216.785 0 .382.041.577.042.195.112.271.069.076.201.118v.195a.9.9 0 0 1-.326.062q-.334 0-.521-.194-.188-.202-.188-.751 0-.562-.236-.876-.23-.32-.577-.32h-1.208v2.1h-.681v-4.768zm-1.347.618v1.432h1.354a.77.77 0 0 0 .528-.202.64.64 0 0 0 .229-.5v-.028a.65.65 0 0 0-.208-.5.75.75 0 0 0-.549-.202zM134.297 121.07l-.091.618h-2.354v1.404h2.132v.619h-2.132v1.508h2.396l.097.619h-3.174v-4.768zM140.525 121.07v4.768h-.68v-3.969h-.042l-1.646 3.969h-.577l-1.639-3.969h-.035v3.969h-.618v-4.768h1.07l1.535 3.753h.028l1.542-3.753zM144.932 121.07l-.09.618h-2.355v1.404h2.133v.619h-2.133v1.508h2.397l.097.619h-3.174v-4.768zM147.952 121.07q.632 0 1.035.298.41.3.41.821 0 .465-.25.792a.97.97 0 0 1-.605.396v.035q.335.132.549.459.215.326.215.785 0 .382.042.577t.111.271a.45.45 0 0 0 .202.118v.195a.9.9 0 0 1-.327.062q-.333 0-.521-.194-.187-.202-.187-.751 0-.562-.236-.876-.23-.32-.577-.32h-1.208v2.1h-.681v-4.768zm-1.347.618v1.432h1.354a.77.77 0 0 0 .528-.202.64.64 0 0 0 .229-.5v-.028a.65.65 0 0 0-.208-.5.75.75 0 0 0-.549-.202zM152.327 121q.556 0 .966.215.416.216.639.612.222.396.222.918h-.681q0-.536-.298-.828-.292-.298-.848-.298-.625 0-.951.389-.327.382-.327 1.133v.625q0 .752.32 1.14.326.382.958.382.604 0 .882-.298.279-.306.278-.967v-.09h-1.347v-.612h2.014v1.627q0 .576.042.89h-.403q-.09-.285-.139-.57-.451.639-1.327.639-.924 0-1.444-.563-.514-.57-.514-1.578v-.625q0-1 .514-1.571.52-.57 1.444-.57M158.403 121.07l-.09.618h-2.355v1.404h2.132v.619h-2.132v1.508h2.396l.098.619h-3.175v-4.768zM162.937 121.07v4.768h-.577l-2.326-3.49-.021.007v3.483h-.618v-4.768h.597l2.306 3.447.021-.007v-3.44zM165.968 121q.555 0 .972.229.417.23.639.661.23.423.229 1.007h-.68q0-.604-.299-.938-.298-.34-.861-.34-.625 0-.952.389-.326.382-.326 1.133v.625q0 .744.319 1.133.32.39.945.389.583 0 .889-.333.312-.334.312-.932h.653q0 .578-.229 1.001a1.55 1.55 0 0 1-.639.654 2 2 0 0 1-.972.229q-.924 0-1.445-.563-.514-.57-.514-1.578v-.625q0-1 .514-1.571.52-.57 1.445-.57M172.185 121.07l-1.674 2.926v1.842h-.681v-1.842l-1.681-2.926h.778l1.271 2.217h.028l1.257-2.217zM176.522 121.07q.632 0 1.034.298.41.3.41.821 0 .465-.25.792a.96.96 0 0 1-.604.396v.035q.333.132.549.459.215.326.215.785 0 .382.042.577.04.195.111.271.069.076.201.118v.195a.9.9 0 0 1-.326.062q-.333 0-.521-.194-.188-.202-.188-.751 0-.562-.236-.876-.23-.32-.576-.32h-1.209v2.1h-.681v-4.768zm-1.348.618v1.432h1.355a.77.77 0 0 0 .527-.202.64.64 0 0 0 .23-.5v-.028a.65.65 0 0 0-.209-.5.75.75 0 0 0-.548-.202zM182.272 121.07l-.09.618h-2.355v1.404h2.133v.619h-2.133v1.508h2.396l.098.619h-3.174v-4.768zM185.264 121.07l1.862 4.768h-.737l-.403-1.036h-2.278l-.396 1.036h-.659l1.861-4.768zm-.389.82h-.042l-.882 2.293h1.799zM189.448 121.07q.597 0 1.042.264.444.257.687.743.243.48.243 1.133v.487q0 .653-.243 1.14a1.8 1.8 0 0 1-.687.743 2.04 2.04 0 0 1-1.042.258h-1.653v-4.768zm-.973.618v3.531h.973q.618 0 .951-.382.34-.39.341-1.14v-.487q0-.736-.334-1.126-.326-.396-.958-.396zM194.003 121.07v.618h-.556v3.531h.556v.619h-1.792v-.619h.555v-3.531h-.555v-.618zM198.554 121.07v4.768h-.576l-2.327-3.49-.021.007v3.483h-.618v-4.768h.597l2.306 3.447.021-.007v-3.44zM202.96 121.07l-.09.618h-2.355v1.404h2.132v.619h-2.132v1.508h2.396l.098.619h-3.175v-4.768zM205.494 121q.785 0 1.229.348.451.347.451.986v.084h-.68v-.104a.59.59 0 0 0-.271-.515q-.271-.18-.716-.18-.492 0-.771.166a.51.51 0 0 0-.27.466q0 .23.152.375.16.147.389.23.237.083.646.187.528.139.855.272.326.132.555.396.236.264.236.702 0 .778-.479 1.14-.472.354-1.333.354-.862 0-1.341-.361-.472-.368-.472-1.064l.007-.139h.68l-.007.146q0 .403.299.605.306.194.841.194.52 0 .819-.187.306-.195.306-.528a.56.56 0 0 0-.167-.424 1.05 1.05 0 0 0-.41-.258 7 7 0 0 0-.667-.201 8 8 0 0 1-.833-.264 1.4 1.4 0 0 1-.535-.383q-.222-.264-.222-.688 0-.687.465-1.021.466-.334 1.244-.334M209.848 121q.785 0 1.23.348.451.347.451.986v.084h-.681v-.104a.58.58 0 0 0-.271-.515q-.27-.18-.715-.18-.494 0-.771.166a.51.51 0 0 0-.271.466q0 .23.153.375.16.147.389.23.236.083.646.187.528.139.854.272.327.132.556.396.236.264.236.702 0 .778-.479 1.14-.473.354-1.334.354t-1.34-.361q-.473-.368-.473-1.064l.007-.139h.681l-.007.146q0 .403.299.605.306.194.84.194.521 0 .82-.187.305-.195.305-.528a.56.56 0 0 0-.166-.424 1.05 1.05 0 0 0-.41-.258 7 7 0 0 0-.667-.201 8 8 0 0 1-.833-.264 1.4 1.4 0 0 1-.535-.383q-.222-.264-.222-.688 0-.687.465-1.021.466-.334 1.243-.334M217.559 121.07v.618h-1.494v4.15h-.68v-4.15h-1.494v-.618zM221.498 121.07l-.091.618h-2.354v1.404h2.132v.619h-2.132v1.508h2.396l.097.619h-3.174v-4.768zM224.49 121.07l1.861 4.768h-.736l-.403-1.036h-2.278l-.396 1.036h-.66l1.862-4.768zm-.389.82h-.042l-.882 2.293h1.799zM232.257 121.07v4.768h-.68v-3.969h-.042l-1.646 3.969h-.577l-1.639-3.969h-.035v3.969h-.618v-4.768h1.07l1.535 3.753h.028l1.542-3.753z"/></svg>